<?xml version="1.0" standalone="no"?>
<!DOCTYPE svg PUBLIC "-//W3C//DTD SVG 20010904//EN"
 "http://www.w3.org/TR/2001/REC-SVG-20010904/DTD/svg10.dtd">
<svg version="1.0" xmlns="http://www.w3.org/2000/svg"
 width="500.000000pt" height="500.000000pt" viewBox="0 0 500.000000 500.000000"
 preserveAspectRatio="xMidYMid meet">
<metadata>
Created by potrace 1.14, written by Peter Selinger 2001-2017
</metadata>
<g transform="translate(0.000000,500.000000) scale(0.100000,-0.100000)"
fill="#000000" stroke="none">
<path d="M2270 4254 c-410 -52 -855 -241 -1180 -501 -89 -71 -219 -200 -263
-262 -28 -38 -54 -54 -192 -123 -234 -117 -309 -164 -395 -248 -128 -125 -162
-229 -134 -403 26 -158 73 -336 175 -662 33 -104 89 -291 125 -415 84 -294
120 -368 228 -475 152 -149 380 -248 711 -306 119 -22 159 -23 475 -23 291 0
393 4 655 27 801 70 1146 133 1509 274 364 141 583 312 665 520 47 120 80 350
111 788 15 200 31 345 52 465 23 126 31 208 32 295 2 209 -36 268 -229 367
-128 64 -286 119 -443 152 l-112 24 -82 72 c-119 104 -207 163 -333 225 -198
96 -422 158 -700 190 -125 15 -602 28 -675 19z m350 -124 c178 -22 429 -104
596 -195 169 -93 349 -244 450 -378 l44 -59 -23 -18 -22 -18 34 1 c33 2 36 -1
77 -78 75 -139 124 -318 124 -449 0 -68 -2 -74 -22 -78 -13 -3 -97 -21 -188
-41 -149 -32 -546 -105 -660 -121 l-45 -6 -2 67 c-1 38 -10 109 -21 159 -11
50 -30 158 -42 240 -26 182 -63 361 -97 468 -57 184 -164 355 -280 451 -34 28
-62 53 -62 58 -1 10 39 9 139 -3z m-185 -45 c81 -55 165 -168 240 -320 104
-213 136 -339 190 -754 14 -107 25 -227 25 -266 l0 -72 -142 -17 c-316 -36
-489 -47 -835 -53 -305 -5 -363 -4 -363 8 0 8 6 50 14 94 8 44 26 172 41 285
21 162 35 229 66 321 105 316 261 577 432 720 99 83 138 101 214 97 52 -3 70
-10 118 -43z m-441 -78 c-222 -235 -392 -574 -467 -932 -33 -154 -57 -328 -57
-408 l0 -62 -52 3 c-130 7 -394 34 -513 53 -126 19 -131 21 -162 56 -118 131
-24 424 229 713 253 288 587 508 944 623 114 37 146 45 153 40 2 -1 -32 -40
-75 -86z m1366 7 c154 -44 169 -50 179 -77 18 -46 61 -64 70 -30 6 22 8 21 96
-23 160 -81 281 -176 376 -293 113 -139 175 -305 186 -502 l6 -106 -84 -30
c-88 -32 -187 -63 -201 -63 -4 0 -8 24 -8 54 0 126 -43 276 -125 437 -27 52
-41 91 -35 94 14 9 2 25 -18 26 -10 0 -43 37 -77 86 -75 107 -224 266 -313
332 -38 27 -106 70 -153 95 -97 53 -83 53 101 0z m1083 -535 c161 -53 212 -76
241 -108 17 -19 18 -25 6 -60 -20 -61 -89 -141 -173 -199 l-76 -52 -6 47 c-15
113 -65 235 -145 353 -56 85 -55 82 -23 74 15 -4 94 -29 176 -55z m-3773 -242
c0 -2 -11 -30 -24 -63 -40 -98 -58 -210 -54 -334 2 -75 0 -110 -8 -110 -6 0
-69 30 -140 67 -71 37 -155 76 -187 88 l-58 21 35 45 c48 63 159 145 301 223
111 60 135 72 135 63z m4031 -138 c-8 -50 -14 -58 -82 -122 -120 -110 -197
-165 -314 -222 -137 -67 -297 -122 -512 -176 l-166 -42 -114 18 c-95 15 -127
16 -193 7 -95 -14 -174 -40 -242 -82 -47 -29 -63 -33 -227 -50 -844 -90 -1417
-93 -1926 -9 -88 14 -189 43 -375 106 -140 47 -267 92 -281 99 -20 10 -33 30
-48 76 -12 34 -21 66 -21 70 0 5 24 -5 52 -21 149 -84 521 -176 863 -213 163
-18 1078 -18 1305 0 550 43 955 106 1400 217 418 104 724 237 849 369 19 19
36 34 38 33 1 -2 -1 -28 -6 -58z m-43 -359 c-13 -123 -19 -132 -138 -212 -107
-71 -263 -143 -430 -198 -218 -72 -202 -71 -239 -6 -17 31 -51 77 -76 103 -25
25 -45 48 -45 49 0 1 21 5 48 9 26 4 117 24 201 46 85 21 157 36 159 34 3 -2
17 2 31 10 14 8 77 34 139 59 135 53 249 116 311 173 25 22 47 40 48 39 1 -1
-3 -49 -9 -106z m-4292 -269 c-1 -9 4 -17 9 -18 6 -1 9 4 9 11 -1 10 14 7 54
-11 160 -70 549 -137 962 -164 356 -23 936 -3 1373 47 77 8 141 14 142 12 2
-2 -16 -32 -40 -66 -24 -35 -55 -92 -71 -127 -15 -36 -32 -65 -38 -65 -6 0
-49 -5 -96 -10 -307 -35 -499 -44 -900 -44 -445 0 -556 7 -880 59 -269 44
-402 86 -489 155 -35 27 -41 40 -69 137 -16 60 -33 116 -37 125 -6 15 -2 15
32 -4 22 -12 39 -29 39 -37z m4239 -47 c-66 -112 -254 -212 -636 -337 l-47
-15 -6 30 c-14 72 -15 72 97 103 205 56 401 144 537 240 84 59 99 53 55 -21z
m-1087 51 c171 -40 276 -154 318 -342 60 -271 -92 -612 -322 -723 -186 -91
-434 -54 -569 85 -150 153 -175 420 -63 651 30 61 32 63 62 57 30 -6 31 -6 14
14 -24 26 -23 28 14 74 124 155 349 230 546 184z m1073 -343 c-9 -78 -14 -90
-40 -112 -95 -81 -345 -198 -561 -263 -63 -20 -116 -34 -117 -33 -1 1 7 31 18
66 11 35 22 90 26 122 l6 57 56 16 c238 65 501 175 581 243 32 28 35 28 38 11
2 -11 -1 -59 -7 -107z m-4140 -38 c25 -11 27 -14 9 -10 -14 3 -31 6 -37 6 -7
0 -13 5 -13 10 0 13 2 13 41 -6z m209 -59 c270 -61 497 -79 970 -79 380 0 550
8 928 40 106 9 194 15 196 13 9 -10 -18 -139 -29 -139 -7 0 -129 -10 -271 -22
-311 -25 -931 -31 -1124 -10 -341 37 -421 56 -623 145 -161 71 -201 90 -172
81 11 -3 67 -16 125 -29z m-126 -110 c166 -77 512 -144 901 -175 278 -22 816
-11 1160 25 141 14 145 13 145 -38 0 -16 11 -62 25 -104 14 -42 24 -78 21 -80
-5 -5 -227 -28 -436 -44 -223 -18 -822 -18 -1019 0 -127 11 -157 17 -173 33
-13 13 -25 17 -36 11 -59 -29 -448 39 -563 97 -23 12 -41 29 -44 43 -16 77
-55 235 -60 250 -9 22 -10 23 79 -18z m4032 -52 c-51 -359 -323 -561 -988
-733 -380 -98 -743 -147 -1273 -171 -263 -12 -696 -7 -870 11 -399 41 -670
159 -794 347 -29 43 -81 166 -96 225 l-7 26 61 -24 c148 -60 368 -95 776 -124
96 -7 150 -15 172 -27 29 -16 34 -16 50 -1 15 13 69 16 373 21 314 5 536 18
792 46 l76 9 55 -52 c61 -59 156 -109 235 -125 75 -16 237 -13 302 4 130 35
267 134 346 252 21 32 39 59 40 61 1 2 53 16 115 32 225 57 453 150 574 234
28 19 54 35 59 35 4 1 5 -20 2 -46z"/>
<path d="M3344 3669 c-8 -14 14 -29 33 -22 18 7 17 20 -3 27 -21 8 -22 8 -30
-5z"/>
<path d="M3410 3640 c0 -5 7 -10 15 -10 8 0 15 5 15 10 0 6 -7 10 -15 10 -8 0
-15 -4 -15 -10z"/>
<path d="M1945 3821 c-6 -11 33 -26 43 -16 4 3 0 10 -8 15 -19 12 -27 12 -35
1z"/>
<path d="M2595 3300 c-9 -14 13 -40 34 -40 10 0 26 6 36 14 20 15 23 13 -47
32 -9 3 -19 0 -23 -6z"/>
<path d="M3675 3760 c-3 -5 1 -13 10 -16 22 -9 29 1 11 15 -10 8 -16 9 -21 1z"/>
<path d="M4182 2524 c1 -9 9 -19 16 -22 9 -3 13 2 10 14 -1 9 -9 19 -16 22 -9
3 -13 -2 -10 -14z"/>
<path d="M1310 2156 c0 -7 6 -19 14 -25 12 -10 17 -8 25 7 8 16 7 21 -5 26
-24 9 -34 7 -34 -8z"/>
<path d="M3289 2387 c-50 -26 -105 -99 -115 -153 -12 -66 4 -125 47 -167 l39
-39 0 -128 c0 -165 -17 -212 -69 -195 -14 4 -16 25 -17 134 -1 144 -13 181
-58 181 -49 0 -143 -145 -154 -236 -4 -36 0 -51 17 -74 11 -16 21 -39 21 -50
0 -31 36 -95 66 -119 28 -22 70 -35 146 -46 37 -5 55 -14 87 -47 38 -39 41
-41 70 -28 17 6 33 20 36 30 12 39 50 72 124 110 44 22 92 55 111 76 37 43 69
108 70 142 0 13 10 36 22 52 20 27 20 33 9 72 -33 110 -96 198 -141 198 -49 0
-62 -29 -72 -153 -5 -61 -6 -127 -3 -145 5 -27 2 -34 -20 -44 -46 -21 -53 0
-57 157 -3 123 -1 144 15 165 10 14 29 40 42 59 33 45 36 149 5 199 -44 72
-137 93 -221 49z m144 -65 c42 -36 43 -148 2 -182 -13 -11 -15 -4 -15 49 0 68
-21 101 -63 101 -42 0 -69 -41 -73 -111 -4 -71 -9 -80 -29 -53 -18 24 -19 107
-1 142 38 73 126 100 179 54z m-52 -139 c1 -5 2 -98 4 -208 3 -215 12 -262 55
-285 27 -14 70 -7 106 17 27 17 74 103 74 136 0 15 -3 16 -21 6 -18 -9 -20 -8
-16 8 3 10 9 54 13 97 l7 79 18 -24 c23 -30 45 -76 54 -111 6 -22 4 -28 -9
-28 -12 0 -16 -11 -16 -47 0 -60 -28 -121 -70 -157 -54 -45 -149 -88 -177 -81
-23 5 -25 4 -19 -18 4 -16 0 -29 -9 -37 -8 -7 -15 -19 -15 -28 0 -10 -7 -7
-24 11 -24 26 -58 38 -160 58 -37 7 -68 20 -82 34 -25 25 -44 82 -44 134 0 25
-4 32 -14 28 -22 -9 8 86 45 143 l29 45 0 -40 c0 -22 3 -64 6 -92 6 -45 4 -53
-10 -53 -31 0 -14 -72 25 -109 28 -26 94 -28 127 -5 50 35 56 64 62 294 3 118
9 221 13 228 9 13 46 17 48 5z"/>
<path d="M1162 1614 c4 -21 22 -23 26 -1 2 10 -3 17 -13 17 -10 0 -15 -6 -13
-16z"/>
<path d="M1891 1611 c-11 -19 -11 -25 0 -32 21 -13 34 7 22 33 l-10 23 -12
-24z"/>
<path d="M1667 1565 c-7 -16 8 -29 23 -20 10 6 2 35 -10 35 -4 0 -10 -7 -13
-15z"/>
<path d="M3821 1471 c-12 -8 -12 -12 -2 -25 16 -20 50 -20 74 -2 17 14 17 15
-5 21 -48 14 -53 14 -67 6z"/>
</g>
</svg>
